<?xml version="1.0" standalone="no"?>
<!DOCTYPE svg PUBLIC "-//W3C//DTD SVG 20010904//EN"
 "http://www.w3.org/TR/2001/REC-SVG-20010904/DTD/svg10.dtd">
<svg version="1.0" xmlns="http://www.w3.org/2000/svg"
 width="808.000000pt" height="808.000000pt" viewBox="0 0 808.000000 808.000000"
 preserveAspectRatio="xMidYMid meet">
<metadata>
Created by potrace 1.14, written by Peter Selinger 2001-2017
</metadata>
<g transform="translate(0.000000,808.000000) scale(0.100000,-0.100000)"
fill="#000000" stroke="none">
<path d="M5046 4963 c-2 -2 -27 -6 -57 -8 -69 -6 -143 -23 -197 -46 -23 -10
-44 -18 -47 -19 -17 0 -130 -65 -182 -104 -116 -88 -210 -208 -271 -348 -48
-112 -86 -308 -59 -308 6 0 8 3 4 6 -10 11 48 159 91 232 57 96 179 218 275
276 82 49 219 100 302 112 71 10 213 11 260 2 107 -20 117 -23 194 -61 197
-98 336 -332 335 -567 0 -112 -48 -168 -153 -177 -70 -7 -95 5 -117 55 -42 96
-158 296 -191 330 -7 7 -13 17 -13 22 0 5 -6 15 -12 22 -7 7 -46 57 -86 111
-40 53 -74 97 -76 97 -3 0 -23 -24 -45 -52 -22 -29 -44 -57 -49 -63 -4 -5 -23
-32 -42 -60 -19 -27 -37 -52 -40 -55 -13 -12 -103 -155 -137 -217 -20 -38 -39
-70 -42 -73 -3 -3 -7 -9 -9 -15 -1 -5 -14 -43 -28 -84 -17 -49 -25 -90 -22
-118 2 -24 0 -43 -4 -43 -4 0 -17 17 -30 39 -25 43 -74 81 -105 81 -24 0 -66
-47 -56 -62 3 -6 0 -9 -6 -7 -7 3 -11 7 -9 9 1 3 -8 21 -22 40 -44 63 -72 75
-120 52 -32 -15 -32 -17 -27 -67 15 -144 161 -370 312 -480 22 -17 42 -32 45
-35 3 -3 19 -12 35 -20 17 -8 32 -18 35 -21 6 -6 138 -60 160 -64 8 -2 15 -4
15 -5 0 -1 7 -3 15 -5 137 -30 318 -29 435 4 501 141 764 667 577 1151 -32 83
-114 210 -178 276 -65 67 -164 139 -245 179 -67 32 -74 35 -166 60 -57 16
-238 36 -247 28z"/>
<path d="M2835 4618 c-22 -4 -45 -9 -51 -11 -49 -12 -122 -93 -143 -159 -13
-40 -12 -136 1 -144 4 -3 8 -12 8 -21 0 -29 64 -101 110 -124 51 -26 166 -38
196 -20 17 9 16 10 -7 11 -93 1 -194 82 -216 173 -16 70 11 159 63 210 45 45
87 63 154 67 23 1 23 2 5 9 -37 15 -80 18 -120 9z"/>
<path d="M2325 4528 c-16 -35 -29 -65 -30 -68 0 -3 -12 -30 -27 -60 -14 -30
-45 -100 -69 -155 -24 -55 -48 -103 -54 -107 -5 -4 15 -8 45 -7 55 0 55 0 75
42 l20 42 113 0 c62 0 117 -2 121 -5 5 -3 16 -22 24 -42 15 -36 18 -38 61 -38
26 0 46 4 46 8 0 5 -13 36 -30 70 -16 34 -30 65 -30 67 0 3 -16 37 -35 75 -19
39 -34 71 -34 73 0 1 -8 20 -17 42 -10 22 -18 42 -19 45 0 3 -9 22 -19 43 -17
35 -21 37 -66 37 l-47 0 -28 -62z m119 -133 c20 -47 35 -89 32 -93 -4 -7 -144
-8 -151 0 -6 6 67 178 76 178 3 0 22 -38 43 -85z"/>
<path d="M3188 4568 c-2 -13 -3 -86 -2 -164 1 -111 5 -147 19 -174 38 -74 90
-105 182 -109 73 -3 134 25 170 81 28 42 28 46 31 216 l4 173 -44 -3 -43 -3
-1 -150 c0 -157 -7 -186 -48 -215 -29 -20 -54 -25 -86 -17 -85 20 -94 41 -96
207 -1 74 -3 145 -3 158 -1 19 -6 22 -40 22 -32 0 -39 -4 -43 -22z"/>
<path d="M3806 4528 c-16 -35 -37 -81 -48 -102 -10 -22 -18 -46 -18 -53 0 -7
-4 -13 -10 -13 -5 0 -9 -3 -8 -7 1 -9 -6 -29 -56 -137 -20 -43 -36 -80 -36
-82 0 -2 21 -4 48 -4 45 1 48 2 67 43 l20 42 113 0 c62 0 116 -2 120 -5 4 -3
15 -22 24 -42 10 -22 25 -38 35 -39 23 -2 67 2 71 6 3 2 -44 112 -101 235 -14
30 -41 91 -60 135 l-36 80 -48 3 -48 3 -29 -63z m109 -115 c16 -38 33 -74 38
-80 21 -28 1 -38 -72 -37 -39 1 -74 3 -77 6 -3 3 11 40 30 83 20 42 36 81 36
86 0 27 20 1 45 -58z"/>
<path d="M2900 4567 c-89 -25 -152 -119 -135 -199 l7 -32 15 45 c25 76 73 113
150 118 75 4 134 -41 154 -117 13 -48 16 -49 23 -7 21 113 -102 223 -214 192z"/>
<path d="M2995 4239 c61 -24 127 -93 145 -152 9 -30 14 -37 20 -26 9 15 -3 97
-21 141 -14 34 -73 58 -142 57 l-52 0 50 -20z"/>
<path d="M3310 4080 c-86 -29 -124 -79 -121 -155 4 -89 67 -137 201 -152 64
-7 133 -42 137 -71 14 -101 -198 -127 -264 -32 -16 23 -42 20 -80 -10 -21 -16
-21 -18 -5 -41 39 -57 81 -84 148 -96 192 -35 328 60 300 210 -13 67 -97 120
-211 131 -22 3 -40 5 -40 6 0 1 -11 4 -25 6 -41 7 -63 37 -55 72 13 60 127 76
200 26 35 -24 40 -24 73 -11 46 18 49 28 17 65 -50 60 -180 84 -275 52z"/>
<path d="M2159 4076 c-1 -1 -3 -124 -4 -274 l-1 -273 165 1 c136 1 173 5 206
19 36 17 99 71 81 71 -4 0 -2 10 5 21 19 36 2 104 -35 141 l-34 34 29 29 c24
23 29 37 29 74 0 52 -20 97 -53 120 -12 9 -24 16 -27 16 -3 0 -12 5 -20 10
-11 7 -331 17 -341 11z m319 -122 c54 -61 13 -96 -115 -96 -48 0 -93 0 -98 1
-15 1 -13 115 2 121 7 3 52 4 100 2 80 -2 90 -5 111 -28z m-13 -199 c76 -33
56 -123 -29 -126 -17 -1 -65 -2 -105 -2 l-75 -1 -1 65 c0 35 3 67 8 70 13 9
178 4 202 -6z"/>
<path d="M2690 3986 c-1 -277 -1 -404 -1 -428 l1 -28 205 0 205 0 0 50 0 50
-52 1 c-29 0 -99 0 -155 0 l-103 -1 3 62 2 62 145 1 145 0 1 48 2 47 -137 1
c-75 1 -142 1 -148 0 -9 -1 -12 16 -10 61 l2 63 145 1 c80 1 148 2 153 3 4 0
7 23 6 49 l-2 48 -204 0 -203 0 0 -90z"/>
<path d="M3679 4063 c-1 -7 -1 -24 -1 -38 0 -14 0 -29 1 -34 1 -5 31 -9 69 -9
37 0 75 -1 85 -1 16 -1 17 -19 17 -227 l0 -225 52 3 53 3 0 217 c0 119 3 220
7 224 4 4 43 6 85 6 l78 -1 3 47 2 48 -225 0 c-176 0 -225 -3 -226 -13z"/>
<path d="M2149 3395 c-3 -19 2 -50 13 -83 9 -32 11 -32 28 -17 11 10 21 31 23
49 3 30 4 29 11 -11 11 -57 38 -59 54 -4 16 53 15 72 -3 65 -8 -4 -15 -17 -15
-29 0 -24 -16 -45 -17 -22 -2 49 -43 82 -43 35 0 -13 -5 -30 -10 -38 -8 -12
-10 -11 -10 6 0 21 -28 66 -31 49z"/>
<path d="M2366 3365 c-26 -63 -28 -75 -12 -75 9 0 16 5 16 10 0 14 26 13 50
-2 27 -17 34 -5 16 31 -9 17 -16 33 -16 36 -1 41 -37 41 -54 0z m39 -33 c-8
-8 -25 10 -19 20 4 6 9 5 15 -3 4 -7 6 -15 4 -17z"/>
<path d="M2474 3388 c-5 -8 -3 -10 19 -12 7 0 13 -19 15 -43 4 -58 31 -60 28
-3 -2 36 4 45 27 41 4 0 7 5 7 12 0 15 -87 19 -96 5z"/>
<path d="M2619 3377 c0 -12 -1 -37 -2 -55 -2 -31 0 -32 35 -32 20 0 40 5 43
10 3 6 -5 10 -19 10 -14 0 -28 5 -31 10 -6 10 7 14 34 11 7 -2 11 4 9 11 -3 7
-11 13 -18 13 -7 0 -15 5 -17 12 -3 8 3 11 16 8 12 -2 21 1 21 8 0 7 -16 13
-35 14 -30 2 -35 -1 -36 -20z"/>
<path d="M2757 3393 c-4 -3 -7 -28 -7 -55 0 -36 4 -48 15 -48 8 0 15 9 15 20
0 11 4 20 9 20 5 0 13 -9 16 -20 3 -11 13 -20 21 -20 17 0 17 5 3 31 -7 14 -7
24 0 32 5 7 7 18 3 24 -9 14 -66 26 -75 16z m43 -34 c0 -5 -4 -9 -10 -9 -5 0
-10 7 -10 16 0 8 5 12 10 9 6 -3 10 -10 10 -16z"/>
<path d="M2950 3385 c0 -8 3 -14 8 -14 22 4 27 -5 26 -41 -1 -56 24 -54 28 3
2 23 8 42 15 42 14 0 30 15 17 16 -78 8 -94 7 -94 -6z"/>
<path d="M3091 3344 c0 -40 4 -54 15 -54 8 0 14 9 14 20 0 13 5 18 15 14 8 -4
15 -12 15 -20 0 -8 10 -14 21 -14 18 0 19 2 9 15 -7 8 -10 26 -8 39 7 35 -5
49 -45 51 l-36 2 0 -53z m59 15 c0 -5 -7 -9 -15 -9 -15 0 -20 12 -9 23 8 8 24
-1 24 -14z"/>
<path d="M3241 3391 c-6 -4 -10 -28 -9 -53 1 -50 10 -58 56 -50 30 6 28 22 -3
22 -15 0 -25 6 -25 14 0 10 8 13 25 10 14 -2 25 0 25 6 0 5 -4 11 -10 11 -5 1
-14 2 -20 3 -18 2 -6 21 13 20 16 -1 25 15 10 17 -31 5 -53 5 -62 0z"/>
<path d="M3376 3355 c-9 -22 -16 -46 -16 -53 0 -15 16 -16 25 -2 3 6 15 10 26
10 10 0 19 -4 19 -10 0 -5 7 -10 15 -10 20 0 19 9 -4 63 -24 55 -45 56 -65 2z
m41 -10 c0 -8 -6 -15 -13 -15 -8 0 -11 6 -8 15 4 8 9 15 13 15 4 0 8 -7 8 -15z"/>
<path d="M3490 3390 c0 -5 8 -13 17 -19 11 -6 18 -22 18 -43 0 -22 5 -33 15
-33 11 0 14 9 12 37 -3 29 0 37 17 43 35 11 23 20 -29 22 -28 1 -50 -3 -50 -7z"/>
<path d="M3635 3392 c-3 -3 -5 -27 -5 -54 0 -36 4 -48 15 -48 11 0 15 11 16
38 1 36 1 37 11 10 11 -33 28 -36 35 -8 8 31 21 24 18 -10 -3 -35 21 -42 27
-7 5 32 -5 80 -19 84 -6 2 -18 -8 -26 -24 l-15 -28 -12 26 c-11 23 -32 33 -45
21z"/>
<path d="M3804 3385 c-4 -8 -4 -24 -1 -35 3 -11 1 -22 -4 -25 -4 -3 -6 -12 -2
-20 6 -17 83 -21 83 -5 0 6 -11 10 -25 10 -14 0 -25 5 -25 10 0 9 14 14 33 11
4 0 7 6 7 15 0 11 -6 14 -20 9 -11 -4 -20 -2 -20 4 0 6 5 12 10 12 6 1 14 2
19 3 17 2 25 16 10 17 -8 0 -24 2 -37 5 -14 2 -25 -2 -28 -11z"/>
<path d="M3943 3388 c-13 -17 -9 -86 5 -100 9 -9 12 -6 13 13 1 13 1 30 0 37
-3 21 8 13 24 -18 17 -33 44 -40 46 -12 2 31 -3 87 -7 92 -9 9 -22 -22 -17
-41 8 -30 -11 -22 -25 11 -15 33 -24 37 -39 18z"/>
<path d="M4070 3385 c0 -9 6 -12 15 -9 15 6 18 -3 18 -59 0 -20 4 -27 15 -25
11 2 16 15 16 43 1 23 6 40 13 40 14 0 30 15 17 16 -5 0 -28 3 -51 5 -33 3
-43 1 -43 -11z"/>
</g>
</svg>
